# xmcd CD database file
#
# Track frame offsets:
#	150
#	9622
#	25162
#	55202
#	76662
#	97915
#	123397
#	146220
#
# Disc length: 2245 seconds
#
# Revision: 6
# Processed by: cddbd v1.5.2PL0 Copyright (c) Steve Scherf et al.
# Submitted via: CDex 1.70beta3
#
DISCID=5d08c308
DTITLE=坂本龍一 - B-2 Unit
DYEAR=1980
DGENRE=Avantgarde
TTITLE0=differencia
TTITLE1=thatness and thereness
TTITLE2=participation mystique
TTITLE3=E-3A
TTITLE4=iconic storage
TTITLE5=riot in Lagos
TTITLE6=not yhe 6 o'clock news
TTITLE7=the end of europe
EXTD=YEAR: 1980
EXTT0=
EXTT1=
EXTT2=
EXTT3=
EXTT4=
EXTT5=
EXTT6=
EXTT7=
PLAYORDER=
